<?xml version="1.0" encoding="UTF-8"?>
<svg id="Layer_1" data-name="Layer 1" xmlns="http://www.w3.org/2000/svg" version="1.1" viewBox="0 0 1831 448">
  <defs>
    <style>
      .cls-1 {
        fill: #1c1f24;
      }

      .cls-1, .cls-2, .cls-3 {
        stroke-width: 0px;
      }

      .cls-2, .cls-3 {
        fill: #ee0ed7;
      }

      .cls-3 {
        fill-rule: evenodd;
      }
    </style>
  </defs>
  <path class="cls-2" d="M234.6,61.9c89.7,0,162.1,72.4,162.1,162.1s-72.4,162.1-162.1,162.1-162.1-72.4-162.1-162.2S144.9,61.9,234.6,61.9ZM234.6,34.4c-104.5,0-189.6,85-189.6,189.6s85,189.6,189.6,189.6,189.6-85,189.6-189.6S339.2,34.4,234.6,34.4Z"/>
  <path class="cls-3" d="M304.4,189v68.8c5.9-3.1,14.4-7.7,23.8-12.8,22-11.9,22-31,0-43l-23.8-13h0ZM184.5,127.5c-11.7,0-22.3,9.5-22,22.5v146.8c0,20.7,14.5,29.4,32.8,19.6,29.8-16,59.5-32,93.1-50v-86l-31.3-16.8v80l-16,8.6v-97.2l-31.3-16.8v130.9l-16,8.6v-148c-3.1-1.5-6.2-2.3-9.3-2.3h0Z"/>
  <g>
    <path class="cls-1" d="M528.4,292.4l-50.1-134.4c-1.6-4.5.5-7.6,5.2-7.6h23.8c3.7,0,6.3,1.8,7.6,5.2l35.4,106.1,33.3-105.9c1.1-3.7,3.9-5.5,7.6-5.5h25.7c3.7,0,6.6,1.8,7.6,5.5l33.3,105.9,35.1-106.1c1.1-3.7,3.9-5.2,7.6-5.2h24.6c4.7,0,6.8,3.1,5.2,7.6l-50.8,134.4c-1.3,3.4-3.7,5.2-7.3,5.2h-28.6c-3.7,0-6.6-1.8-7.6-5.5l-32-100.9-32.2,100.9c-1.1,3.7-3.9,5.5-7.6,5.5h-28.6c-3.7,0-6-1.8-7.3-5.2h0Z"/>
    <path class="cls-1" d="M741.9,239.5v-31.7c0-36.4,12.1-57.4,54.2-57.4h43.5c42.2,0,54.2,21,54.2,57.4v31.7c0,37.5-12.1,58.2-54.2,58.2h-43.5c-42.2,0-54.2-20.7-54.2-58.2h0ZM838.8,265.4c15.7,0,20.4-4.2,20.4-22.3v-38.5c0-17.8-4.4-22-20.4-22h-41.9c-16,0-20.4,4.2-20.4,22v38.5c0,18.1,4.7,22.3,20.4,22.3h41.9Z"/>
    <path class="cls-1" d="M956.2,292.4l-50.1-134.4c-1.6-4.5.5-7.6,5.2-7.6h23.8c3.7,0,6.3,1.8,7.6,5.2l35.4,106.1,33.3-105.9c1.1-3.7,3.9-5.5,7.6-5.5h25.7c3.7,0,6.6,1.8,7.6,5.5l33.3,105.9,35.1-106.1c1.1-3.7,3.9-5.2,7.6-5.2h24.6c4.7,0,6.8,3.1,5.2,7.6l-50.8,134.4c-1.3,3.4-3.7,5.2-7.3,5.2h-28.6c-3.7,0-6.6-1.8-7.6-5.5l-32-100.9-32.2,100.9c-1.1,3.7-3.9,5.5-7.6,5.5h-28.6c-3.7,0-6-1.8-7.3-5.2h.1Z"/>
    <path class="cls-1" d="M1228.5,292.7l-61.8-134.7c-2.1-4.7-.3-7.6,4.7-7.6h23.8c3.7,0,6,1.6,7.6,5l47.9,108.2,47.7-108.2c1.6-3.4,3.9-5,7.6-5h24.4c5,0,6.8,2.9,4.7,7.6l-62.4,134.7c-1.6,3.1-4.2,5-7.9,5h-28.6c-3.7,0-6.3-1.8-7.9-5h.2Z"/>
    <path class="cls-1" d="M1355.8,128.4v-23.1c0-4.2,2.4-6.5,6.6-6.5h21.5c4.2,0,6.6,2.4,6.6,6.5v23.1c0,4.2-2.4,6.5-6.6,6.5h-21.5c-4.2,0-6.6-2.4-6.6-6.5ZM1355.8,291.1v-134.2c0-4.2,2.4-6.5,6.6-6.5h21.5c4.2,0,6.6,2.4,6.6,6.5v134.2c0,4.2-2.4,6.5-6.6,6.5h-21.5c-4.2,0-6.6-2.4-6.6-6.5Z"/>
  </g>
  <g>
    <path class="cls-2" d="M1419.5,292.5v-25.3c0-3.3,1.9-5.2,5.2-5.2h18.4c3.3,0,5.2,1.9,5.2,5.2v25.3c0,3.3-1.9,5.2-5.2,5.2h-18.4c-3.3,0-5.2-1.9-5.2-5.2Z"/>
    <path class="cls-2" d="M1474.7,292.5v-137c0-3.3,1.9-5.2,5.2-5.2h22.5c2.7,0,4.8,1.3,6.3,3.5l52.4,85.4,52.2-85.4c1.5-2.3,3.5-3.5,6.3-3.5h22.3c3.3,0,5.2,1.9,5.2,5.2v137c0,3.3-1.9,5.2-5.2,5.2h-18.4c-3.3,0-5.2-1.9-5.2-5.2v-95.6l-45.3,72.7c-1.5,2.3-3.5,3.5-6.3,3.5h-11.7c-2.7,0-4.8-1.3-6.3-3.5l-45.3-72.4v95.4c0,3.3-1.9,5.2-5.2,5.2h-18.4c-3.3,0-5.2-1.9-5.2-5.2Z"/>
    <path class="cls-2" d="M1673.4,292.5v-137c0-3.3,1.9-5.2,5.2-5.2h114.2c3.3,0,5.2,1.9,5.2,5.2v17.3c0,3.3-1.9,5.2-5.2,5.2h-90.6v32.2h58.7c3.3,0,5.2,1.9,5.2,5.2v15.2c0,3.3-1.9,5.2-5.2,5.2h-58.7v34h90.6c3.3,0,5.2,1.9,5.2,5.2v17.3c0,3.3-1.9,5.2-5.2,5.2h-114.2c-3.3,0-5.2-1.9-5.2-5.2Z"/>
  </g>
</svg>